<svg width="32" height="32" viewBox="0 0 32 32" fill="none" xmlns="http://www.w3.org/2000/svg">
  <rect width="32" height="32" rx="6" fill="#3B82F6"/>
  <path d="M16 6C12.6863 6 10 8.68629 10 12V14H8C7.44772 14 7 14.4477 7 15V25C7 25.5523 7.44772 26 8 26H24C24.5523 26 25 25.5523 25 25V15C25 14.4477 24.5523 14 24 14H22V12C22 8.68629 19.3137 6 16 6Z" fill="white"/>
  <path d="M16 10C17.1046 10 18 10.8954 18 12V14H14V12C14 10.8954 14.8954 10 16 10Z" fill="#3B82F6"/>
  <rect x="14" y="17" width="4" height="2" fill="#3B82F6"/>
  <rect x="15" y="16" width="2" height="4" fill="#3B82F6"/>
</svg>
